# xmcd
#
# Track frame offsets:
#	150
#	19914
#	38245
#	60146
#	73911
#	82426
#	98615
#	114521
#	129488
#	142504
#	155291
#	169636
#	188140
#	198593
#	208576
#	221089
#
# Disc length: 3034
#
# Revision: 1
# Processed by: cddbd v1.5.1PL0 Copyright (c) Steve Scherf et al.
# Submitted via: MusicManager v5.1.0.0
# Normalized: r0:DSETVAR1
#
DISCID=de0bd810
DTITLE=Various Artist - A Salute to the Stars and Stripes
DYEAR=2001
DGENRE=country
TTITLE0=John Wayne - Pledge
TTITLE1=Faith Hill - There Will Come a Day
TTITLE2=Gordan Sinclair - The Americans
TTITLE3=JoDee Messina - Bring On the Rain
TTITLE4=White and Wall - We Are the People
TTITLE5=Red Skelton - Pledge
TTITLE6=Ray Charles - America
TTITLE7=Charlie Daniels - In America
TTITLE8=Merle Haggard - Fightin' Side On Me
TTITLE9=Waylon Jennings - The Eagle
TTITLE10=Lee Greenwood - God Bless the USA
TTITLE11=Billy Ray Cyrus - Some Gave All
TTITLE12=Tracy Byrd and Mark Chesnutt - Good Way To Get On My Bad Side
TTITLE13=Billy Gilman - One Voice
TTITLE14=LeeAnn Rimes - Amazing Grace
TTITLE15=Ricochet - Star Spangled Banner
EXTD=
EXTT0=
EXTT1=
EXTT2=
EXTT3=
EXTT4=
EXTT5=
EXTT6=
EXTT7=
EXTT8=
EXTT9=
EXTT10=
EXTT11=
EXTT12=
EXTT13=
EXTT14=
EXTT15=
PLAYORDER=
